<?xml version="1.0" encoding="UTF-8" standalone="no"?>
<!DOCTYPE svg PUBLIC "-//W3C//DTD SVG 1.1//EN" "http://www.w3.org/Graphics/SVG/1.1/DTD/svg11.dtd">
<svg width="100%" height="100%" viewBox="0 0 3500 2306" version="1.1" xmlns="http://www.w3.org/2000/svg" xmlns:xlink="http://www.w3.org/1999/xlink" xml:space="preserve" xmlns:serif="http://www.serif.com/" style="fill-rule:evenodd;clip-rule:evenodd;stroke-linejoin:round;stroke-miterlimit:2;">
    <g id="Artboard1" transform="matrix(1,0,0,0.890691,0,-274.333)">
        <rect x="0" y="308" width="3500" height="2589" style="fill:none;"/>
        <g transform="matrix(1,0,0,1.12272,0,-355.529)">
            <path d="M1731.48,680.923L1712.58,680.923C1705.29,680.923 1699.38,675.011 1699.38,667.719L1699.38,631.783C1699.38,624.49 1705.29,618.579 1712.58,618.579L1731.48,618.579C1738.77,618.579 1744.68,624.49 1744.68,631.783L1744.68,667.719C1744.68,675.011 1738.77,680.923 1731.48,680.923Z" style="fill:rgb(73,73,73);fill-rule:nonzero;"/>
            <path d="M2822.74,2447.17C2820.58,2447.17 2818.51,2446 2817.44,2443.97C2816.21,2441.61 2692.81,2207.41 2583.73,2123.68C2582.37,2122.64 2581.53,2121.08 2581.41,2119.39C2578.45,2079.41 2568.57,2035.14 2558.56,2032.94C2556.21,2032.52 2550.97,2036.2 2544.15,2048.51C2542.54,2051.38 2538.94,2052.43 2536.04,2050.83C2533.16,2049.24 2532.12,2045.61 2533.71,2042.73C2537.07,2036.68 2547.37,2018.28 2561.12,2021.29C2583.81,2026.28 2591.16,2091.75 2593.09,2115.85C2703.68,2202.45 2822.95,2428.79 2828.01,2438.43C2829.53,2441.35 2828.41,2444.96 2825.49,2446.48C2824.6,2446.94 2823.66,2447.17 2822.74,2447.17Z" style="fill:rgb(73,73,73);fill-rule:nonzero;"/>
            <path d="M2679.57,2801L2617.04,2801C2613.75,2801 2611.08,2798.32 2611.08,2795.03C2611.08,2791.74 2613.75,2789.07 2617.04,2789.07L2675.01,2789.07L2693.05,2722.77C2693.46,2721.24 2694.47,2719.93 2695.85,2719.14L2787.23,2667.21C2790.09,2665.59 2793.73,2666.6 2795.36,2669.46C2796.99,2672.32 2795.98,2675.96 2793.12,2677.59L2703.9,2728.29L2685.32,2796.59C2684.61,2799.19 2682.26,2801 2679.57,2801Z" style="fill:rgb(73,73,73);fill-rule:nonzero;"/>
            <path d="M539.936,1200.7C552.904,1174.76 509.676,1166.11 492.383,1170.43C457.802,1179.08 475.091,1209.34 457.802,1222.31C453.479,1226.63 414.574,1217.99 405.929,1217.99C371.345,1222.31 310.827,1295.8 345.408,1321.73C379.993,1347.67 449.155,1334.7 483.739,1330.38C518.32,1326.06 552.904,1321.73 587.485,1321.73C613.422,1317.41 639.359,1317.41 669.619,1313.09L794.978,1313.09C842.531,1313.09 1037.06,1339.03 959.246,1243.92L967.89,1261.21C963.57,1261.21 959.246,1239.6 954.922,1235.28C941.954,1222.31 920.341,1209.34 903.049,1205.02C881.436,1196.37 851.176,1200.7 829.563,1209.34C825.239,1213.66 816.594,1213.66 820.915,1217.99L812.271,1243.92C812.271,1222.31 825.239,1196.37 807.947,1179.08C786.334,1157.47 712.848,1144.5 691.232,1179.08L682.588,1205.02C686.911,1192.05 686.911,1174.76 682.588,1161.79C652.327,1045.08 505.352,1161.79 561.549,1226.63" style="fill:rgb(234,234,234);fill-rule:nonzero;"/>
            <path d="M2156.45,970.801C2148.23,960.52 2179.07,933.795 2191.4,933.795C2201.68,933.795 2209.9,952.298 2216.07,952.298L2220.18,942.018C2222.24,935.85 2228.41,929.682 2234.57,927.628C2248.96,917.347 2265.41,917.347 2277.75,929.682C2279.8,931.739 2281.86,937.906 2281.86,939.963L2294.19,919.404C2306.53,907.068 2318.86,898.844 2337.37,902.956C2347.65,905.012 2364.09,917.347 2366.15,927.626C2366.15,929.682 2366.15,939.961 2368.21,942.018C2372.32,946.129 2388.76,933.794 2394.93,933.794C2411.38,935.85 2425.77,946.129 2436.05,958.464C2438.11,960.52 2444.27,964.633 2444.27,968.744C2444.27,979.023 2376.43,985.191 2368.21,985.191L2269.52,985.191C2261.3,985.191 2253.08,983.136 2244.85,983.136C2236.63,983.136 2228.41,985.191 2218.13,985.191C2205.79,985.191 2103,995.471 2158.51,954.353L2156.45,970.801Z" style="fill:rgb(234,234,234);fill-rule:nonzero;"/>
            <path d="M2692.8,1736.43C2692.8,1740.86 2692.8,1729.78 2692.8,1729.78C2695.02,1723.13 2697.24,1718.69 2701.67,1714.26C2710.54,1705.39 2728.28,1692.09 2741.58,1694.3C2748.23,1696.52 2757.1,1707.61 2761.53,1707.61C2763.75,1707.61 2770.4,1694.3 2772.62,1692.09C2781.49,1683.22 2797.01,1678.78 2808.09,1681C2819.18,1683.22 2832.48,1692.09 2834.7,1703.17C2834.7,1705.39 2832.48,1718.69 2834.7,1718.69C2850.22,1718.69 2865.74,1712.04 2883.47,1714.26C2898.99,1716.47 2949.98,1716.47 2947.77,1743.08C2945.55,1776.34 2887.91,1758.6 2870.17,1758.6C2852.43,1758.6 2859.08,1785.2 2839.13,1791.86C2821.39,1798.51 2797.01,1796.29 2781.49,1787.42C2777.05,1785.2 2770.4,1771.9 2763.75,1771.9C2763.75,1771.9 2748.23,1796.29 2730.49,1794.07C2710.54,1791.86 2686.15,1782.99 2679.5,1763.03C2683.93,1754.16 2690.59,1727.56 2692.8,1736.43Z" style="fill:rgb(234,234,234);fill-rule:nonzero;"/>
            <path d="M1752.42,1706.46C1722.03,1706.46 1686.67,1681.1 1682.57,1640.14C1682.39,1638.4 1681.46,1636.82 1680.02,1635.83C1679.01,1635.14 1677.83,1634.77 1676.63,1634.77C1676.12,1634.77 1675.59,1634.85 1675.08,1634.98L1581.76,1660.23L1531.02,1487.72C1530.27,1485.16 1527.92,1483.44 1525.3,1483.44C1525.09,1483.44 1524.87,1483.45 1524.65,1483.48L1387.31,1498.5C1415.55,1449.71 1541,1237.62 1644.02,1136.88C1679.08,1153.96 1948.11,1285.32 2036.78,1337.97L1891.05,1393.02C1888.28,1394.07 1886.69,1397.01 1887.34,1399.89L1925.68,1572.43L1813.62,1602.38C1811.99,1602.81 1810.62,1603.92 1809.85,1605.43C1809.09,1606.93 1808.99,1608.69 1809.59,1610.26C1817.2,1630.21 1815.95,1652.45 1806.15,1671.29C1797.27,1688.39 1782.62,1700.6 1765.98,1704.81C1761.62,1705.9 1757.06,1706.45 1752.42,1706.46Z" style="fill:rgb(255,182,0);fill-rule:nonzero;"/>
            <path d="M1642.87,1129.7C1524.14,1243.78 1376.29,1505.7 1376.29,1505.7L1525.3,1489.4L1577.68,1667.51C1610.67,1658.59 1643.65,1649.66 1676.63,1640.74C1680.94,1683.69 1717.29,1712.42 1752.41,1712.42C1757.48,1712.42 1762.52,1711.82 1767.43,1710.58C1805.7,1700.93 1832.43,1653.38 1815.16,1608.14L1932.74,1576.71L1893.16,1398.6L2050.31,1339.23C1968.82,1288.01 1642.87,1129.7 1642.87,1129.7ZM1645.2,1144.09C1690.63,1166.25 1928.45,1282.62 2022.96,1336.82L1888.94,1387.45C1883.39,1389.54 1880.23,1395.4 1881.52,1401.19L1918.62,1568.14L1812.08,1596.62C1808.82,1597.49 1806.08,1599.71 1804.54,1602.72C1803.01,1605.72 1802.81,1609.24 1804.02,1612.4C1811.03,1630.75 1809.88,1651.21 1800.86,1668.55C1792.76,1684.13 1779.51,1695.24 1764.51,1699.02C1760.64,1700 1756.56,1700.5 1752.41,1700.5C1724.61,1700.5 1692.28,1677.19 1688.49,1639.55C1688.15,1636.06 1686.28,1632.9 1683.4,1630.92C1681.39,1629.53 1679.02,1628.81 1676.63,1628.81C1675.59,1628.81 1674.54,1628.95 1673.52,1629.23L1626.48,1641.95L1585.83,1652.95L1536.74,1486.04C1535.23,1480.92 1530.54,1477.48 1525.31,1477.48C1524.88,1477.48 1524.44,1477.5 1524.01,1477.55L1398.4,1491.29C1434.84,1429.06 1549.32,1239.44 1645.2,1144.09Z" style="fill:rgb(73,73,73);fill-rule:nonzero;"/>
            <path d="M1882.38,2072.67C1882.88,2049.74 1875.11,2027.73 1860.18,2010.11C1845.1,1992.31 1823.91,1981.1 1802.05,1979.36C1799.97,1979.19 1797.89,1979.11 1795.82,1979.11C1772.88,1979.11 1750.05,1989.25 1733.18,2006.93C1716.78,2024.1 1707.7,2046.18 1707.26,2069.65L1611.45,2069.65L1629.24,1718.62L1726.5,1722.68C1724.34,1747.79 1732.21,1772.65 1748.56,1791.75C1764.55,1810.44 1786.26,1821.17 1808.12,1821.17C1828.43,1821.01 1848.59,1811.75 1863.94,1795.78C1880.05,1779.01 1889.16,1757.22 1889.95,1733.85L1995.26,1740.14L1979.16,2078.92L1882.38,2072.67Z" style="fill:rgb(255,182,0);fill-rule:nonzero;"/>
            <path d="M1623.59,1712.42L1605.17,2075.61L1713.3,2075.61C1710.97,2025.06 1751.75,1985.07 1795.83,1985.07C1797.74,1985.07 1799.66,1985.15 1801.58,1985.3C1844.3,1988.7 1880.24,2029.83 1876.11,2078.24L1984.84,2085.26L2001.49,1734.54C1962.33,1732.2 1923.16,1729.86 1884,1727.52C1885.58,1776.92 1847.26,1814.89 1808.6,1815.2L1808.12,1815.2C1766.03,1815.2 1724.79,1770.71 1733.19,1717L1623.59,1712.42ZM1634.9,1724.83L1720.21,1728.39C1719.62,1752.95 1727.99,1776.89 1744.03,1795.63C1761.15,1815.65 1784.52,1827.13 1808.12,1827.13L1808.69,1827.13C1830.08,1826.95 1851.79,1817.03 1868.25,1799.9C1883.97,1783.53 1893.42,1762.67 1895.53,1740.16L1942.15,1742.94L1989.02,1745.74L1973.5,2072.58L1888.3,2067.08C1887.53,2044.76 1879.37,2023.52 1864.73,2006.25C1848.63,1987.25 1825.95,1975.28 1802.53,1973.42C1800.29,1973.24 1798.05,1973.15 1795.83,1973.15C1771.27,1973.15 1746.86,1983.96 1728.87,2002.8C1712.79,2019.64 1703.33,2040.91 1701.58,2063.69L1617.72,2063.69L1634.9,1724.83Z" style="fill:rgb(73,73,73);fill-rule:nonzero;"/>
            <path d="M1784.09,2523.84C1766.7,2523.71 1749.56,2515.23 1737.05,2500.56C1723.49,2484.67 1717.52,2463.69 1720.67,2443.01C1720.93,2441.31 1720.44,2439.58 1719.33,2438.27C1718.22,2436.96 1716.59,2436.18 1714.87,2436.15L1615.52,2434.51L1615.52,2107.01L1724.42,2107.01C1727.71,2107.01 1730.38,2104.34 1730.39,2101.06C1730.51,2054.46 1767.18,2021.99 1800.02,2021.99C1802.88,2021.99 1805.7,2022.24 1808.4,2022.72C1834.89,2027.58 1862.01,2058.77 1859.63,2100.71C1859.54,2102.34 1860.13,2103.95 1861.25,2105.14C1862.38,2106.34 1863.95,2107.01 1865.59,2107.01L1972.66,2107.01L1968.42,2440.54L1855.07,2440.54C1853.39,2440.54 1851.79,2441.25 1850.66,2442.48C1849.53,2443.73 1848.97,2445.38 1849.13,2447.04C1850.98,2467.21 1844.24,2487.33 1830.64,2502.24C1818.12,2515.97 1801.29,2523.84 1784.48,2523.84L1784.09,2523.84Z" style="fill:rgb(255,182,0);fill-rule:nonzero;"/>
            <path d="M1978.69,2101.04L1978.74,2101.04L1978.69,2101.04ZM1800.02,2016.02C1764.3,2016.03 1724.56,2050.56 1724.42,2101.04L1609.56,2101.04L1609.56,2440.37C1644.63,2440.95 1679.7,2441.54 1714.78,2442.12C1707.6,2489.24 1744.12,2529.5 1784.04,2529.8L1784.49,2529.8C1823.13,2529.8 1859.29,2492.39 1855.07,2446.5L1974.31,2446.5L1978.69,2101.04L1865.59,2101.04C1868.03,2057.95 1840.58,2022.55 1809.47,2016.87C1806.37,2016.3 1803.21,2016.02 1800.02,2016.02ZM1800.02,2027.95C1802.51,2027.95 1804.97,2028.17 1807.33,2028.6C1831.33,2032.99 1855.88,2061.67 1853.68,2100.37C1853.5,2103.64 1854.67,2106.85 1856.92,2109.23C1859.18,2111.62 1862.31,2112.97 1865.59,2112.97L1966.62,2112.97L1962.54,2434.58L1855.07,2434.58C1851.72,2434.58 1848.52,2435.99 1846.26,2438.47C1844,2440.94 1842.89,2444.26 1843.19,2447.6C1844.9,2466.09 1838.72,2484.54 1826.24,2498.22C1814.84,2510.71 1799.62,2517.88 1784.13,2517.88C1768.47,2517.76 1752.97,2510.04 1741.59,2496.7C1729.15,2482.12 1723.68,2462.88 1726.57,2443.92C1727.08,2440.51 1726.11,2437.05 1723.89,2434.42C1721.67,2431.8 1718.42,2430.25 1714.97,2430.2L1662.37,2429.32L1621.48,2428.64L1621.48,2112.97L1724.42,2112.97C1730.99,2112.97 1736.33,2107.65 1736.34,2101.07C1736.46,2057.98 1769.99,2027.95 1800.02,2027.95Z" style="fill:rgb(73,73,73);fill-rule:nonzero;"/>
            <path d="M1600.73,2788.63L1606.65,2460.36L1691.27,2460.36C1692.03,2483.92 1701.61,2506.27 1718.61,2523.85C1736.41,2542.25 1760.4,2553.23 1782.78,2553.23C1785.89,2553.23 1788.97,2553.02 1791.94,2552.59C1830.25,2547.12 1870.44,2507.31 1870.87,2460.64C1887.89,2461.41 1903.3,2462.18 1918.69,2462.95C1934.62,2463.76 1950.54,2464.55 1968.2,2465.35L1959.73,2788.63L1600.73,2788.63Z" style="fill:rgb(255,182,0);fill-rule:nonzero;"/>
            <path d="M1864.71,2454.4C1868.19,2502.33 1826.7,2541.6 1791.09,2546.68C1788.37,2547.07 1785.6,2547.26 1782.78,2547.26C1742.64,2547.26 1695.45,2508.46 1697.24,2454.4L1600.79,2454.4L1594.65,2794.6L1965.55,2794.6L1974.31,2459.66C1934.67,2457.9 1904.35,2456.15 1864.71,2454.4ZM1685.67,2466.32C1687.73,2489.23 1697.67,2510.77 1714.33,2527.99C1733.23,2547.52 1758.82,2559.19 1782.78,2559.19C1786.17,2559.19 1789.53,2558.95 1792.77,2558.49C1831.85,2552.91 1872.77,2513.81 1876.55,2466.87C1891.44,2467.56 1905.19,2468.25 1918.94,2468.94C1932.93,2469.64 1946.91,2470.34 1962.08,2471.04L1953.93,2782.67L1606.8,2782.67L1612.51,2466.32L1685.67,2466.32Z" style="fill:rgb(73,73,73);fill-rule:nonzero;"/>
            <path d="M1504.77,1508.2C1504.23,1508.2 1503.69,1508.13 1503.14,1507.98C1499.98,1507.08 1498.13,1503.79 1499.02,1500.62L1628.54,1040.61C1629.15,1038.43 1630.95,1036.79 1633.18,1036.37C1635.4,1035.97 1637.68,1036.84 1639.04,1038.65L1905.08,1392.32C1907.06,1394.95 1906.53,1398.69 1903.9,1400.67C1901.26,1402.64 1897.53,1402.12 1895.55,1399.48L1636.75,1055.44L1510.5,1503.86C1509.76,1506.48 1507.37,1508.2 1504.77,1508.2Z" style="fill:rgb(73,73,73);fill-rule:nonzero;"/>
            <path d="M1635.76,1059.65C1632.53,1059.65 1629.87,1057.07 1629.81,1053.81L1623.67,748.254C1623.6,744.963 1626.21,742.233 1629.51,742.168C1632.69,741.85 1635.52,744.72 1635.59,748.011L1641.73,1053.57C1641.79,1056.86 1639.18,1059.59 1635.89,1059.65L1635.76,1059.65Z" style="fill:rgb(73,73,73);fill-rule:nonzero;"/>
            <path d="M3114.01,2697.55C3113.13,2697.55 3112.25,2697.57 3111.37,2697.61C3096.95,2698.15 3072,2703.84 3066.91,2735.83C3064.45,2751.29 3070.09,2765.73 3080.97,2779.01C3098.67,2776.26 3117.72,2770.31 3137.68,2761.17C3160.38,2750.79 3171.32,2738.55 3168.51,2726.72C3164.78,2711.04 3139.23,2697.55 3114.01,2697.55ZM3285.51,2887.39C3285.06,2887.39 3284.62,2887.34 3284.17,2887.24C3276.4,2885.44 3132.82,2851.68 3076.67,2791.62C3047.39,2795.07 3021.57,2790.24 3000.97,2777C2975.82,2760.86 2961.4,2733.19 2961.4,2701.13C2961.4,2669.78 2942.7,2664.95 2906.87,2658.51C2880.73,2653.81 2851.11,2648.48 2827.27,2625.69C2774.2,2574.94 2679.53,2369.66 2662.62,2318.37C2645.22,2265.62 1805.52,727.005 1797.04,711.477C1795.46,708.579 1796.52,704.962 1799.42,703.382C1802.3,701.802 1805.93,702.868 1807.51,705.756C1842.15,769.231 2656.2,2260.86 2673.95,2314.63C2690.63,2365.26 2783.68,2567.51 2835.51,2617.07C2856.75,2637.38 2884.5,2642.38 2908.98,2646.78C2942.08,2652.72 2973.33,2658.35 2973.33,2701.13C2973.33,2729.06 2985.75,2753.05 3007.41,2766.97C3023.86,2777.53 3044.32,2782.03 3067.55,2780.52C3057.45,2766.29 3052.47,2750.75 3055.13,2733.96C3059.75,2704.88 3080.61,2686.84 3110.92,2685.69C3143.11,2684.59 3174.89,2701.98 3180.11,2723.96C3182.59,2734.37 3181.02,2754.46 3142.63,2772.02C3124.62,2780.26 3107.2,2786.05 3090.7,2789.37C3147.69,2842.95 3285.05,2875.2 3286.84,2875.61C3290.05,2876.35 3292.06,2879.55 3291.32,2882.76C3290.68,2885.52 3288.22,2887.39 3285.51,2887.39Z" style="fill:rgb(73,73,73);fill-rule:nonzero;"/>
            <path d="M1928.61,1625.97C1926.1,1625.97 1923.76,1624.38 1922.94,1621.85C1921.92,1618.72 1923.64,1615.35 1926.77,1614.34C1943.43,1608.92 1954.62,1600.14 1960.04,1588.22C1968.89,1568.72 1959.67,1546.65 1959.58,1546.44C1958.29,1543.41 1959.69,1539.91 1962.71,1538.61C1965.73,1537.3 1969.23,1538.7 1970.53,1541.72C1971,1542.8 1981.94,1568.68 1970.94,1593.04C1964.1,1608.19 1950.48,1619.17 1930.45,1625.68C1929.84,1625.88 1929.22,1625.97 1928.61,1625.97Z" style="fill:rgb(73,73,73);fill-rule:nonzero;"/>
            <path d="M1969.86,1648.75C1967.72,1648.75 1965.65,1647.59 1964.58,1645.56C1963.05,1642.65 1964.16,1639.04 1967.08,1637.51C2013.98,1612.79 2005.21,1572.97 2004.82,1571.29C2004.07,1568.09 2006.04,1564.87 2009.23,1564.11C2012.43,1563.33 2015.63,1565.29 2016.41,1568.48C2016.53,1568.98 2027.99,1618.89 1972.64,1648.05C1971.75,1648.52 1970.8,1648.75 1969.86,1648.75Z" style="fill:rgb(73,73,73);fill-rule:nonzero;"/>
            <path d="M1588.46,2091.22C1587.98,2091.22 1587.48,2091.16 1586.99,2091.03C1520.64,2074.22 1524.75,2008.97 1524.8,2008.31C1525.05,2005.03 1527.98,2002.55 1531.18,2002.82C1534.46,2003.06 1536.93,2005.91 1536.7,2009.19C1536.54,2011.47 1533.42,2065.16 1589.92,2079.48C1593.11,2080.28 1595.05,2083.53 1594.23,2086.72C1593.55,2089.42 1591.13,2091.22 1588.46,2091.22Z" style="fill:white;fill-rule:nonzero;"/>
            <path d="M1609.56,2091.22C1608.74,2091.22 1607.91,2091.05 1607.12,2090.7C1592.84,2084.27 1584.03,2075.86 1580.93,2065.69C1577.32,2053.83 1583.15,2044.26 1583.39,2043.86C1585.13,2041.08 1588.82,2040.21 1591.61,2041.95C1594.39,2043.68 1595.25,2047.32 1593.55,2050.12C1593.38,2050.41 1590.3,2055.78 1592.39,2062.38C1594.47,2068.95 1601.25,2074.98 1612.01,2079.81C1615.01,2081.17 1616.35,2084.69 1615,2087.7C1614.01,2089.91 1611.83,2091.22 1609.56,2091.22Z" style="fill:white;fill-rule:nonzero;"/>
            <path d="M1184.13,1749.89C1181.77,1749.89 1179.53,1748.47 1178.6,1746.15C1177.38,1743.09 1178.86,1739.61 1181.91,1738.39C1183.68,1737.68 1356.2,1666.74 1423.11,1504.3C1409.91,1503.89 1386.46,1501.18 1376.05,1487.82C1372.35,1483.08 1368.74,1474.83 1372.53,1462.52C1373.5,1459.37 1376.84,1457.65 1379.98,1458.57C1383.13,1459.55 1384.89,1462.88 1383.93,1466.03C1382.07,1472.05 1382.57,1476.78 1385.45,1480.5C1394.16,1491.68 1421.76,1492.83 1431.61,1492.34C1433.66,1492.13 1435.55,1493.16 1436.74,1494.79C1437.92,1496.43 1438.2,1498.55 1437.48,1500.43C1371.19,1673.61 1188.2,1748.72 1186.35,1749.46C1185.63,1749.75 1184.87,1749.89 1184.13,1749.89Z" style="fill:rgb(73,73,73);fill-rule:nonzero;"/>
            <rect x="1080.41" y="1987.06" width="255.75" height="42.8" style="fill:rgb(73,73,73);fill-rule:nonzero;"/>
            <path d="M1149.87,2016.19L996.244,2811.69" style="fill:none;fill-rule:nonzero;"/>
            <path d="M996.247,2817.66C995.873,2817.66 995.495,2817.62 995.112,2817.54C991.877,2816.92 989.764,2813.8 990.391,2810.56L1144.02,2015.06C1144.63,2011.82 1147.76,2009.67 1151,2010.34C1154.23,2010.96 1156.35,2014.09 1155.72,2017.32L1002.09,2812.82C1001.55,2815.67 999.047,2817.66 996.247,2817.66Z" style="fill:rgb(73,73,73);fill-rule:nonzero;"/>
            <path d="M1265.21,2015L1115.41,2811.69" style="fill:none;fill-rule:nonzero;"/>
            <path d="M1115.41,2817.66C1115.05,2817.66 1114.68,2817.62 1114.31,2817.55C1111.07,2816.95 1108.94,2813.82 1109.55,2810.59L1259.35,2013.9C1259.97,2010.67 1263.08,2008.61 1266.31,2009.14C1269.55,2009.75 1271.68,2012.87 1271.07,2016.11L1121.27,2812.8C1120.73,2815.66 1118.23,2817.66 1115.41,2817.66Z" style="fill:rgb(73,73,73);fill-rule:nonzero;"/>
            <path d="M1125.1,2144.42L1241.05,2144.42" style="fill:none;fill-rule:nonzero;"/>
            <path d="M1241.05,2150.39L1125.1,2150.39C1121.81,2150.39 1119.14,2147.71 1119.14,2144.42C1119.14,2141.13 1121.81,2138.46 1125.1,2138.46L1241.05,2138.46C1244.34,2138.46 1247.02,2141.13 1247.02,2144.42C1247.02,2147.71 1244.34,2150.39 1241.05,2150.39Z" style="fill:rgb(73,73,73);fill-rule:nonzero;"/>
            <path d="M1093.01,2310.62L1208.37,2310.62" style="fill:none;fill-rule:nonzero;"/>
            <path d="M1208.37,2316.59L1093.01,2316.59C1089.72,2316.59 1087.04,2313.91 1087.04,2310.62C1087.04,2307.33 1089.72,2304.66 1093.01,2304.66L1208.37,2304.66C1211.66,2304.66 1214.34,2307.33 1214.34,2310.62C1214.34,2313.91 1211.66,2316.59 1208.37,2316.59Z" style="fill:rgb(73,73,73);fill-rule:nonzero;"/>
            <path d="M1065.2,2454.61L1183.08,2454.61" style="fill:none;fill-rule:nonzero;"/>
            <path d="M1183.08,2460.57L1065.2,2460.57C1061.91,2460.57 1059.24,2457.9 1059.24,2454.61C1059.24,2451.32 1061.91,2448.64 1065.2,2448.64L1183.08,2448.64C1186.37,2448.64 1189.04,2451.32 1189.04,2454.61C1189.04,2457.9 1186.37,2460.57 1183.08,2460.57Z" style="fill:rgb(73,73,73);fill-rule:nonzero;"/>
            <path d="M1033.67,2617.87L1151.93,2617.87" style="fill:none;fill-rule:nonzero;"/>
            <path d="M1151.93,2623.83L1033.67,2623.83C1030.38,2623.83 1027.71,2621.16 1027.71,2617.86C1027.71,2614.57 1030.38,2611.9 1033.67,2611.9L1151.93,2611.9C1155.22,2611.9 1157.9,2614.57 1157.9,2617.86C1157.9,2621.16 1155.22,2623.83 1151.93,2623.83Z" style="fill:rgb(73,73,73);fill-rule:nonzero;"/>
            <path d="M1266.71,2016.19L1420.33,2811.69" style="fill:none;fill-rule:nonzero;"/>
            <path d="M1420.32,2817.66C1417.52,2817.66 1415.02,2815.67 1414.48,2812.82L1260.86,2017.32C1260.23,2014.09 1262.34,2010.96 1265.58,2010.34C1268.83,2009.67 1271.94,2011.82 1272.56,2015.06L1426.18,2810.56C1426.81,2813.8 1424.69,2816.92 1421.46,2817.54C1421.08,2817.62 1420.7,2817.66 1420.32,2817.66Z" style="fill:rgb(73,73,73);fill-rule:nonzero;"/>
            <path d="M1151.36,2015L1301.16,2811.69" style="fill:none;fill-rule:nonzero;"/>
            <path d="M1301.16,2817.66C1298.34,2817.66 1295.84,2815.66 1295.3,2812.8L1145.5,2016.11C1144.89,2012.87 1147.02,2009.75 1150.26,2009.14C1153.51,2008.53 1156.6,2010.67 1157.22,2013.9L1307.02,2810.59C1307.63,2813.82 1305.5,2816.95 1302.26,2817.55C1301.89,2817.62 1301.52,2817.66 1301.16,2817.66Z" style="fill:rgb(73,73,73);fill-rule:nonzero;"/>
            <path d="M1291.47,2144.42L1175.52,2144.42" style="fill:none;fill-rule:nonzero;"/>
            <path d="M1291.47,2150.39L1175.52,2150.39C1172.23,2150.39 1169.56,2147.71 1169.56,2144.42C1169.56,2141.13 1172.23,2138.46 1175.52,2138.46L1291.47,2138.46C1294.76,2138.46 1297.44,2141.13 1297.44,2144.42C1297.44,2147.71 1294.76,2150.39 1291.47,2150.39Z" style="fill:rgb(73,73,73);fill-rule:nonzero;"/>
            <path d="M1323.57,2310.62L1208.2,2310.62" style="fill:none;fill-rule:nonzero;"/>
            <path d="M1323.56,2316.59L1208.2,2316.59C1204.91,2316.59 1202.24,2313.91 1202.24,2310.62C1202.24,2307.33 1204.91,2304.66 1208.2,2304.66L1323.56,2304.66C1326.85,2304.66 1329.53,2307.33 1329.53,2310.62C1329.53,2313.91 1326.85,2316.59 1323.56,2316.59Z" style="fill:rgb(73,73,73);fill-rule:nonzero;"/>
            <path d="M1351.37,2454.61L1233.5,2454.61" style="fill:none;fill-rule:nonzero;"/>
            <path d="M1351.37,2460.57L1233.5,2460.57C1230.21,2460.57 1227.53,2457.9 1227.53,2454.61C1227.53,2451.32 1230.21,2448.64 1233.5,2448.64L1351.37,2448.64C1354.66,2448.64 1357.33,2451.32 1357.33,2454.61C1357.33,2457.9 1354.66,2460.57 1351.37,2460.57Z" style="fill:rgb(73,73,73);fill-rule:nonzero;"/>
            <path d="M1382.9,2617.87L1264.64,2617.87" style="fill:none;fill-rule:nonzero;"/>
            <path d="M1382.9,2623.83L1264.64,2623.83C1261.35,2623.83 1258.68,2621.16 1258.68,2617.86C1258.68,2614.57 1261.35,2611.9 1264.64,2611.9L1382.9,2611.9C1386.19,2611.9 1388.86,2614.57 1388.86,2617.86C1388.86,2621.16 1386.19,2623.83 1382.9,2623.83Z" style="fill:rgb(73,73,73);fill-rule:nonzero;"/>
            <path d="M1258.62,1993.28C1258.04,1993.28 1257.45,1993.19 1256.86,1993.02C1251.51,1991.37 1247.15,1990.41 1243.61,1989.63C1222.87,1985.07 1222.99,1980.01 1223.93,1940.67C1224.24,1927.99 1224.64,1911.25 1224.64,1889C1224.64,1885.71 1227.31,1883.03 1230.6,1883.03C1233.89,1883.03 1236.56,1885.71 1236.56,1889C1236.56,1911.37 1236.16,1928.2 1235.85,1940.95C1235.03,1975.53 1235.03,1975.53 1246.17,1977.98C1249.96,1978.82 1254.63,1979.85 1260.37,1981.61C1263.52,1982.58 1265.28,1985.92 1264.31,1989.06C1263.53,1991.63 1261.17,1993.28 1258.62,1993.28Z" style="fill:rgb(73,73,73);fill-rule:nonzero;"/>
            <path d="M1144.77,1993.28C1142.12,1993.28 1139.7,1991.49 1139.01,1988.81C1138.18,1985.62 1140.09,1982.37 1143.28,1981.55C1150.1,1979.78 1155.61,1978.81 1160.05,1978.03C1173.92,1975.6 1173.92,1975.6 1172.93,1935.77C1172.57,1921.57 1172.08,1902.13 1172.08,1876.7C1172.08,1873.4 1174.76,1870.73 1178.05,1870.73C1181.34,1870.73 1184.01,1873.4 1184.01,1876.7C1184.01,1901.98 1184.49,1921.33 1184.84,1935.47C1185.98,1980.84 1186.09,1985.57 1162.11,1989.78C1157.88,1990.52 1152.63,1991.44 1146.27,1993.08C1145.77,1993.21 1145.27,1993.28 1144.77,1993.28Z" style="fill:rgb(73,73,73);fill-rule:nonzero;"/>
            <path d="M1148.75,1722.67C1148.75,1689.6 1196.34,1699.41 1238.97,1699.41C1271.07,1699.41 1262.23,1730.17 1262.23,1891.41C1262.23,1924.48 1214.63,1914.67 1172,1914.67C1139.9,1914.67 1148.75,1883.91 1148.75,1722.67Z" style="fill:rgb(255,182,0);fill-rule:nonzero;"/>
            <path d="M1192.24,1704.03C1177.56,1704.03 1164.84,1705.43 1158.86,1711.15C1156.07,1713.83 1154.71,1717.59 1154.71,1722.66C1154.71,1756.21 1154.33,1784.12 1154.01,1807.28C1153.19,1867.13 1152.78,1897.17 1160.97,1905.48C1162.54,1907.08 1165.09,1908.7 1172,1908.7C1180.2,1908.7 1188.57,1909.06 1196.77,1909.41C1219.62,1910.4 1243.26,1911.41 1252.11,1902.93C1254.91,1900.25 1256.26,1896.49 1256.26,1891.41C1256.26,1857.86 1256.64,1829.95 1256.96,1806.79C1257.78,1746.95 1258.2,1716.91 1250,1708.6C1248.43,1707.01 1245.88,1705.38 1238.97,1705.38C1230.77,1705.38 1222.39,1705.02 1214.19,1704.67C1206.78,1704.35 1199.28,1704.03 1192.24,1704.03ZM1218.74,1921.98C1211.55,1921.98 1203.97,1921.66 1196.26,1921.32C1188.23,1920.99 1180.03,1920.63 1172,1920.63C1166.49,1920.63 1158.47,1919.93 1152.49,1913.85C1140.78,1901.99 1141.14,1876.16 1142.09,1807.12C1142.4,1784.01 1142.78,1756.15 1142.78,1722.66C1142.78,1714.29 1145.42,1707.51 1150.61,1702.54C1163.14,1690.53 1188.19,1691.6 1214.7,1692.76C1222.73,1693.09 1230.94,1693.45 1238.97,1693.45C1244.48,1693.45 1252.5,1694.15 1258.49,1700.23C1270.19,1712.09 1269.83,1737.92 1268.89,1806.96C1268.57,1830.07 1268.19,1857.92 1268.19,1891.41C1268.19,1899.79 1265.55,1906.56 1260.36,1911.54C1251.47,1920.04 1236.29,1921.98 1218.74,1921.98Z" style="fill:rgb(73,73,73);fill-rule:nonzero;"/>
            <path d="M1143.16,1530.43C1174.98,1469.43 1254.22,1451.91 1300.9,1510.71C1341.99,1562.47 1359.98,1701.44 1312.9,1754.46C1237.13,1839.8 1011.39,1853.47 1049.67,1542.47C1056.19,1489.6 1060.76,1441.22 1091.74,1398.09C1097.51,1390.05 1113.85,1379.57 1122.93,1389.06" style="fill:white;fill-rule:nonzero;"/>
            <path d="M1191.15,1813.35C1170.95,1813.35 1150.6,1809.52 1131.41,1800.85C1089.01,1781.7 1021.2,1722.56 1043.46,1541.7L1044.41,1533.92C1050.51,1483.95 1056.27,1436.74 1086.66,1394.44C1091.74,1387.36 1102.2,1379.81 1112.35,1379.09C1118.26,1378.69 1123.52,1380.62 1127.46,1384.73C1129.84,1387.23 1129.75,1391.19 1127.26,1393.58C1124.76,1395.95 1120.8,1395.88 1118.42,1393.39C1117.51,1392.43 1116.15,1391.39 1113.23,1391.57C1107.49,1391.98 1100.11,1397.16 1096.83,1401.74C1068.3,1441.44 1062.98,1485 1056.83,1535.44L1055.88,1543.23C1040.1,1671.38 1068.76,1758.82 1136.56,1789.45C1196.93,1816.69 1272.66,1790.35 1308.22,1750.31C1351.04,1702.09 1337.29,1566.6 1296,1514.6C1276.76,1490.37 1250.63,1478.45 1222.4,1481.2C1191.76,1484.12 1164.21,1503.6 1148.71,1533.31C1147.11,1536.38 1143.33,1537.57 1140.27,1535.97C1137.21,1534.37 1136.02,1530.59 1137.62,1527.54C1155.08,1494.05 1186.34,1472.07 1221.21,1468.75C1253.85,1465.73 1283.84,1479.16 1305.79,1506.82C1346.6,1558.22 1367.82,1702.03 1317.58,1758.61C1289.6,1790.13 1240.85,1813.35 1191.15,1813.35Z" style="fill:rgb(73,73,73);fill-rule:nonzero;"/>
            <path d="M1092.4,1515.59C1092.07,1515.59 1091.74,1515.56 1091.4,1515.51C1087.99,1514.96 1085.66,1511.76 1086.22,1508.34C1089.24,1489.53 1117.26,1419.18 1180.73,1359.02C1183.24,1356.67 1187.2,1356.75 1189.57,1359.27C1191.95,1361.77 1191.85,1365.73 1189.34,1368.11C1124,1430.03 1100.22,1500.02 1098.56,1510.33C1098.07,1513.4 1095.41,1515.59 1092.4,1515.59Z" style="fill:rgb(73,73,73);fill-rule:nonzero;"/>
            <path d="M1120.4,1500.71C1120.24,1500.71 1120.07,1500.7 1119.91,1500.69C1116.47,1500.43 1113.89,1497.42 1114.16,1493.98C1115.33,1478.82 1149.73,1395.35 1206.42,1377.69C1209.75,1376.7 1213.23,1378.51 1214.26,1381.81C1215.28,1385.11 1213.45,1388.61 1210.15,1389.64C1160.74,1405.03 1127.61,1482.2 1126.63,1494.93C1126.38,1498.21 1123.64,1500.71 1120.4,1500.71Z" style="fill:rgb(73,73,73);fill-rule:nonzero;"/>
            <path d="M1136.98,1492.81C1135.46,1492.81 1133.93,1492.26 1132.73,1491.14C1130.19,1488.8 1130.04,1484.83 1132.39,1482.3L1138.71,1475.42C1156.84,1455.6 1177.38,1433.14 1203.16,1423.16C1206.36,1421.9 1210,1423.51 1211.25,1426.73C1212.5,1429.96 1210.89,1433.59 1207.67,1434.83C1184.63,1443.75 1165.14,1465.06 1147.94,1483.86L1141.57,1490.81C1140.34,1492.13 1138.66,1492.81 1136.98,1492.81Z" style="fill:rgb(73,73,73);fill-rule:nonzero;"/>
            <path d="M1154.22,1493.58C1152.59,1493.58 1150.95,1492.95 1149.72,1491.68C1147.33,1489.19 1147.4,1485.23 1149.88,1482.82C1159.05,1473.98 1177.77,1458.67 1191.74,1452.71C1194.93,1451.38 1198.6,1452.84 1199.95,1456.02C1201.3,1459.2 1199.82,1462.87 1196.64,1464.23C1186.05,1468.74 1168.96,1481.8 1158.57,1491.84C1157.35,1493 1155.79,1493.58 1154.22,1493.58Z" style="fill:rgb(73,73,73);fill-rule:nonzero;"/>
            <path d="M1228.8,1584.54C1227.15,1584.54 1225.51,1583.9 1224.28,1582.62C1220.33,1578.49 1212.02,1562.64 1213.38,1554.2C1213.92,1550.79 1217.18,1548.52 1220.54,1549.01C1223.95,1549.56 1226.27,1552.77 1225.72,1556.18C1225.39,1559.38 1230.67,1571.2 1233.31,1573.96C1235.7,1576.46 1235.62,1580.41 1233.12,1582.8C1231.91,1583.96 1230.35,1584.54 1228.8,1584.54Z" style="fill:rgb(73,73,73);fill-rule:nonzero;"/>
            <path d="M1154.99,1584.02L1154.98,1584.03L1154.99,1584.02ZM1159.68,1611.53C1157.57,1611.53 1155.51,1610.47 1154.33,1608.52L1153.36,1606.93C1144.6,1592.65 1140.73,1584.29 1143.89,1578.23C1145.5,1575.18 1149.28,1573.98 1152.34,1575.59C1155.13,1577.05 1156.36,1580.33 1155.34,1583.21C1155.57,1585.59 1158.48,1591.37 1164.02,1600.39L1165.03,1602.03C1166.82,1604.99 1165.88,1608.83 1162.93,1610.62C1161.91,1611.24 1160.79,1611.53 1159.68,1611.53Z" style="fill:rgb(73,73,73);fill-rule:nonzero;"/>
            <path d="M1154.94,1734.32C1134.28,1734.32 1103.36,1705.31 1090.22,1663.14C1090.13,1662.83 1080.96,1632.41 1089.03,1623.14C1091.23,1620.62 1094.46,1619.51 1097.85,1620.05C1101.27,1620.61 1103.57,1623.82 1103.01,1627.24C1102.59,1629.78 1100.69,1631.71 1098.32,1632.29C1097.38,1637.81 1100.37,1653.65 1102.17,1659.42C1115.12,1701 1144.54,1723.28 1156.06,1721.74C1157.33,1721.55 1161.18,1721 1161.36,1711.41C1161.42,1707.95 1164.18,1705.57 1167.72,1705.27C1171.18,1705.33 1173.93,1708.18 1173.86,1711.63C1173.53,1729.91 1162.54,1733.45 1157.83,1734.11C1156.89,1734.26 1155.93,1734.32 1154.94,1734.32Z" style="fill:rgb(73,73,73);fill-rule:nonzero;"/>
            <path d="M1219.03,1826.7C1178.24,1826.7 1149.58,1813.3 1147.72,1812.42C1144.75,1811 1143.5,1807.44 1144.92,1804.47C1146.34,1801.51 1149.92,1800.24 1152.87,1801.67C1153.54,1801.97 1220.7,1833.13 1294.23,1797.37C1371.66,1759.7 1427.94,1664.71 1461.53,1515.04C1462.01,1512.9 1463.62,1511.2 1465.74,1510.61C1465.84,1510.58 1478.39,1506.84 1481.09,1496.89C1483.57,1487.7 1477.33,1474.91 1463.03,1459.89C1460.75,1457.51 1460.85,1453.73 1463.23,1451.46C1465.62,1449.2 1469.39,1449.28 1471.66,1451.67C1489.29,1470.18 1496.32,1486.48 1492.57,1500.12C1489.19,1512.37 1478.17,1518.44 1472.44,1520.83C1437.9,1672.54 1379.63,1769.21 1299.24,1808.19C1270.34,1822.2 1242.64,1826.7 1219.03,1826.7Z" style="fill:rgb(73,73,73);fill-rule:nonzero;"/>
            <path d="M645.453,2515.18C641.068,2515.18 637.114,2513.84 634.866,2513.08L634.281,2512.88C631.818,2512.58 629.607,2510.96 628.682,2508.47C627.359,2504.93 629.163,2500.97 632.711,2499.66C635.207,2498.71 637.278,2499.42 639.269,2500.1C641.213,2500.76 645.738,2502.29 647.57,2500.94C649,2499.87 650.431,2495.97 650.16,2488.22C650.029,2484.44 652.987,2481.26 656.773,2481.13C660.48,2481.02 663.733,2483.96 663.864,2487.74C664.276,2499.66 661.625,2507.56 655.75,2511.93C652.445,2514.39 648.823,2515.18 645.453,2515.18Z" style="fill:rgb(73,73,73);fill-rule:nonzero;"/>
            <path d="M990.386,2387.82C990.049,2387.82 989.708,2387.8 989.362,2387.75C985.618,2387.19 983.038,2383.7 983.599,2379.96C994.887,2304.47 963.804,2254.22 957.845,2245.47C957.564,2245.2 957.302,2244.9 957.059,2244.57C953.9,2240.23 955.045,2237.07 956.564,2235.17C958.494,2232.76 961.818,2231.92 964.664,2233.19C965.318,2233.48 966.37,2234.45 967.716,2236.09L967.815,2236.03C967.945,2236.24 968.067,2236.45 968.174,2236.66C979.444,2250.9 1008.42,2306.62 997.154,2381.98C996.649,2385.38 993.723,2387.82 990.386,2387.82Z" style="fill:rgb(73,73,73);fill-rule:nonzero;"/>
            <path d="M578.79,2447.56M576.023,2433.59C568.75,2436.24 567.039,2438.15 567.502,2442.45C567.731,2444.57 567.465,2446.73 567.208,2448.82C567.175,2449.11 567.133,2449.45 567.091,2449.8C570.536,2449.68 575.476,2448.89 577.879,2447.98C577.794,2446.63 577.318,2443.18 576.855,2439.84C576.598,2437.99 576.313,2435.92 576.023,2433.59ZM565.889,2463.45C564.618,2463.45 563.562,2463.39 562.809,2463.3C558.336,2462.75 555.419,2460.86 554.143,2457.68C552.736,2454.2 553.194,2450.46 553.601,2447.15C553.732,2446.08 553.933,2444.46 553.872,2443.92C552.082,2427.25 566.46,2422.35 573.373,2419.99C573.98,2419.78 574.7,2419.54 575.341,2419.31C576.149,2417.31 577.883,2415.74 580.099,2415.21C583.399,2414.43 586.764,2416.16 588.04,2419.3C588.559,2420.57 588.774,2421.91 588.685,2423.21C589.241,2429.34 589.905,2434.14 590.433,2437.96C591.635,2446.63 592.364,2451.88 588.956,2456.55C585.021,2461.94 572.555,2463.45 565.889,2463.45Z" style="fill:rgb(73,73,73);fill-rule:nonzero;"/>
            <path d="M586.495,2454.04C574.611,2457.11 826.048,2461.39 827.548,2461.39C827.548,2461.39 777.644,2360.72 789.057,2281.9C783.031,2287.81 642.261,2363.27 582.428,2421.88" style="fill:rgb(255,182,0);fill-rule:nonzero;"/>
            <path d="M827.548,2468.24C826.8,2468.24 766.293,2467.22 706.254,2465.81C580.267,2462.89 580.267,2462.89 579.286,2455.13C578.851,2451.7 581.44,2448.27 584.787,2447.41C586.573,2446.93 588.391,2447.23 589.886,2448.09C610.803,2450.45 772.477,2453.59 816.723,2454.35C805.22,2428.53 777.091,2358.18 780.83,2295.24C777.427,2297.27 773.136,2299.8 767.7,2303C723.661,2328.93 632.033,2382.89 587.222,2426.79C584.521,2429.43 580.188,2429.4 577.528,2426.68C574.883,2423.98 574.925,2419.64 577.631,2416.99C623.634,2371.92 716.238,2317.39 760.741,2291.19C772.057,2284.52 782.742,2278.23 784.438,2276.84C786.626,2275.04 789.832,2274.65 792.286,2276.04C794.754,2277.44 796.245,2280.08 795.839,2282.88C784.868,2358.64 833.199,2457.35 833.69,2458.34C834.742,2460.47 834.62,2462.98 833.372,2465C832.119,2467.01 829.918,2468.24 827.548,2468.24Z" style="fill:rgb(73,73,73);fill-rule:nonzero;"/>
            <path d="M800.391,2265.21C800.391,2265.21 800.387,2265.22 800.382,2265.22C800.387,2265.22 800.391,2265.21 800.391,2265.21ZM844.553,2477.04C843.931,2477.04 843.3,2476.96 842.669,2476.78C804.846,2466.01 789.491,2346.57 787.865,2332.99C782.181,2285.5 784.116,2258.69 793.623,2253.29C796.928,2251.43 801.102,2252.58 802.967,2255.87C804.706,2258.94 803.822,2262.78 801.032,2264.8C794.203,2275.75 800.588,2364.06 821.402,2423.74C832.844,2456.54 842.711,2462.54 846.427,2463.6C850.068,2464.64 852.176,2468.42 851.138,2472.07C850.283,2475.08 847.535,2477.04 844.553,2477.04Z" style="fill:rgb(73,73,73);fill-rule:nonzero;"/>
            <path d="M847.834,2480.04C844.16,2480.04 840.809,2478.45 838.584,2475.51C836.303,2472.49 836.901,2468.19 839.921,2465.91C842.505,2463.95 846.034,2464.1 848.432,2466.1C851.896,2464.38 860.749,2454.16 862.483,2429.6C871.078,2307.22 828.833,2263.09 807.029,2260.89C804.748,2260.63 802.78,2261.08 802.682,2261.83C802.191,2265.58 798.788,2268.25 794.993,2267.72C791.239,2267.23 788.598,2263.79 789.089,2260.03C790.23,2251.35 797.975,2246.14 808.403,2247.25C839.36,2250.37 885.124,2302.89 876.159,2430.56C874.084,2459.95 862.38,2476.3 851.704,2479.47C850.4,2479.86 849.096,2480.04 847.834,2480.04Z" style="fill:rgb(73,73,73);fill-rule:nonzero;"/>
            <path d="M842.94,2443.87C842.332,2443.87 841.715,2443.8 841.098,2443.62C837.453,2442.61 835.317,2438.84 836.331,2435.19C850.246,2385.14 820.322,2321.06 801.247,2287.32C799.69,2284.56 799.41,2284.07 799.171,2282.82C798.466,2279.1 800.905,2275.51 804.626,2274.81C807.8,2274.18 810.922,2275.92 812.18,2278.77L813.184,2280.57C833.302,2316.16 864.778,2384.05 849.54,2438.85C848.694,2441.89 845.941,2443.87 842.94,2443.87Z" style="fill:rgb(73,73,73);fill-rule:nonzero;"/>
            <path d="M892.135,2374.15C888.859,2374.15 885.961,2371.79 885.391,2368.45C884.283,2361.98 884.063,2355.53 883.857,2349.29C883.582,2341.12 883.325,2333.41 881.179,2326.04C877.688,2314.06 874.299,2304.02 873.28,2301.17C873.144,2300.88 873.023,2300.58 872.92,2300.27C872.167,2297.92 872.644,2295.01 874.322,2293.2C875.991,2291.39 878.52,2290.57 880.927,2291.18C885.176,2292.18 885.62,2292.28 894.342,2322.21C896.969,2331.23 897.268,2340.17 897.557,2348.83C897.758,2354.88 897.95,2360.59 898.899,2366.13C899.539,2369.86 897.034,2373.41 893.304,2374.05C892.911,2374.12 892.523,2374.15 892.135,2374.15Z" style="fill:rgb(73,73,73);fill-rule:nonzero;"/>
            <path d="M928.678,2410.81C928.341,2410.81 928,2410.79 927.654,2410.73C923.91,2410.17 921.33,2406.69 921.891,2402.95C933.796,2323.34 914.179,2287.34 904.751,2270.04C903.073,2266.96 901.745,2264.48 900.946,2262.52C899.525,2259.01 901.213,2255.01 904.718,2253.59C908.242,2252.14 912.225,2253.85 913.651,2257.36C914.3,2258.96 915.417,2260.97 916.792,2263.48C926.14,2280.63 948.034,2320.81 935.446,2404.97C934.941,2408.37 932.015,2410.81 928.678,2410.81Z" style="fill:rgb(73,73,73);fill-rule:nonzero;"/>
            <path d="M653.259,2513.41C633.744,2513.41 614.575,2503.73 600.656,2486.47C584.591,2466.53 587.021,2460.96 587.82,2459.14C588.839,2456.8 591.172,2455.14 593.719,2454.96C596.234,2454.89 598.945,2456.26 600.277,2458.44C601.076,2459.74 601.39,2461.21 601.263,2462.63C602.1,2464.65 604.549,2469.45 611.327,2477.86C624.223,2493.86 642.358,2501.79 659.947,2499.21C671.146,2497.52 680.102,2491.49 683.323,2483.45C685.318,2478.46 686.459,2470.6 686.94,2465.6C686.749,2464.85 686.679,2464.07 686.749,2463.26C687.085,2459.55 687.431,2455.72 691.741,2454.21C694.265,2453.31 697.111,2454 698.967,2455.95C704.024,2461.23 696.705,2486.9 696.046,2488.54C690.956,2501.26 678.219,2510.32 661.981,2512.76C659.078,2513.19 656.166,2513.41 653.259,2513.41Z" style="fill:rgb(73,73,73);fill-rule:nonzero;"/>
            <path d="M602.577,2772.6C604.38,2770.76 610.363,2767.86 607.988,2767.09" style="fill:rgb(224,224,224);fill-rule:nonzero;"/>
            <path d="M434.308,2804.23C420.285,2804.23 394.105,2797.57 390.198,2795.61C389.539,2795.29 388.936,2794.85 388.412,2794.32C383.5,2789.42 378.886,2652.96 378.886,2651.63C378.886,2647.84 381.952,2644.78 385.739,2644.78C389.525,2644.78 392.591,2647.84 392.591,2651.63C392.656,2657.77 397.616,2763.23 399.485,2784.43C408.623,2787.06 431.442,2791.44 436.088,2790.58C439.477,2788.87 443.202,2790.42 444.895,2793.79C446.587,2797.18 444.824,2801.45 441.44,2803.14C439.898,2803.91 437.397,2804.23 434.308,2804.23Z" style="fill:rgb(73,73,73);fill-rule:nonzero;"/>
            <path d="M268.02,2801.32C265.295,2801.32 262.701,2799.71 261.626,2797.03C260.219,2793.52 261.877,2789.55 265.393,2788.13L265.491,2788.1C277.041,2783.47 287.993,2779.09 296.93,2772.9C317.435,2683.76 319.978,2658.08 321.067,2647.06C321.656,2641.12 321.899,2638.67 324.465,2633.53C326.167,2630.15 330.284,2628.81 333.664,2630.47C337.048,2632.16 338.422,2636.28 336.73,2639.67C335.29,2642.54 335.239,2643.1 334.711,2648.41C333.584,2659.8 330.944,2686.47 309.709,2778.5C309.344,2780.07 308.438,2781.47 307.143,2782.44C296.42,2790.48 283.286,2795.73 270.591,2800.82C269.75,2801.16 268.88,2801.32 268.02,2801.32Z" style="fill:rgb(73,73,73);fill-rule:nonzero;"/>
            <path d="M294.955,2473.45C294.955,2449.01 319.712,2455.14 397.732,2455.14C423.103,2455.14 416.042,2466.88 416.042,2679.56C416.042,2704 391.285,2697.87 313.265,2697.87C287.894,2697.87 294.955,2686.13 294.955,2473.45Z" style="fill:rgb(255,182,0);fill-rule:nonzero;"/>
            <path d="M336.51,2461.31C319.188,2461.31 307.788,2462.19 303.908,2466C303.011,2466.89 301.81,2468.63 301.81,2473.45C301.81,2519.25 301.482,2555.73 301.225,2584.79C300.613,2652.87 300.333,2683.95 305.988,2689.65C306.797,2690.46 308.349,2691.02 313.266,2691.02C328.083,2691.02 340.984,2691.23 352.164,2691.43C382.013,2691.92 401.733,2692.27 407.09,2687C407.987,2686.12 409.189,2684.39 409.189,2679.55C409.189,2633.76 409.516,2597.28 409.773,2568.22C410.385,2500.13 410.666,2469.06 405.01,2463.36C404.201,2462.54 402.65,2461.99 397.732,2461.99C382.915,2461.99 370.015,2461.78 358.834,2461.58C350.589,2461.44 343.12,2461.31 336.51,2461.31ZM374.422,2705.4C367.809,2705.4 360.349,2705.27 351.93,2705.13C340.815,2704.94 327.994,2704.72 313.266,2704.72C307.634,2704.72 301.211,2704.3 296.247,2699.3C286.577,2689.54 286.754,2669.4 287.516,2584.67C287.778,2555.64 288.105,2519.19 288.105,2473.45C288.105,2465.96 290.129,2460.33 294.298,2456.22C303.759,2446.93 322.236,2447.26 359.068,2447.88C370.183,2448.06 383.004,2448.29 397.732,2448.29C403.365,2448.29 409.787,2448.71 414.751,2453.71C424.422,2463.47 424.244,2483.6 423.482,2568.34C423.22,2597.36 422.893,2633.81 422.893,2679.55C422.893,2687.04 420.869,2692.68 416.7,2696.78C409.404,2703.95 396.737,2705.4 374.422,2705.4Z" style="fill:rgb(73,73,73);fill-rule:nonzero;"/>
            <path d="M239.4,2616.94C216.894,2616.94 195.94,2601.2 177.052,2570.09C161.567,2544.59 159.113,2520.53 160.403,2507.65C156.126,2504.35 151.872,2498.41 149.895,2490.17C143.992,2465.67 157.154,2457.76 159.851,2456.42C165.848,2453.45 169.185,2456.77 170.064,2457.84C172.088,2460.33 172.055,2464.17 170.078,2466.68C168.816,2468.3 166.974,2469.19 165.077,2469.3C163.17,2471.04 160.618,2476.15 163.226,2486.96C164.278,2491.36 166.11,2494.14 167.54,2495.68C168.321,2495.55 169.111,2495.55 169.868,2495.68C172.527,2496.18 174.93,2498.67 175.561,2501.31C176.155,2503.77 175.575,2506.26 174.004,2508.08C173.093,2515.76 173.486,2537.81 188.77,2562.97C205.775,2590.99 223.714,2604.61 242.027,2603.13C267.02,2601.27 285.773,2572.61 287.109,2569.41C288.568,2565.94 292.564,2564.22 296.042,2565.66C299.524,2567.08 301.235,2570.99 299.846,2574.49C297.925,2579.32 276.298,2614.01 243.504,2616.76C242.13,2616.88 240.761,2616.94 239.4,2616.94Z" style="fill:rgb(73,73,73);fill-rule:nonzero;"/>
            <path d="M292.994,2308.29C301.705,2297.62 310.017,2260.34 364.134,2243.19C481.473,2206.02 583.072,2421.26 508.217,2512.91C385.046,2663.66 177.142,2572.24 197.872,2311.49C204.066,2233.51 260.614,2179.72 275.456,2179.37" style="fill:white;fill-rule:nonzero;"/>
            <path d="M370.772,2592.51C351.814,2592.51 332.869,2588.91 314.528,2581.55C246.599,2554.24 178.487,2468.82 191.037,2310.95C197.193,2233.43 254.007,2173.02 275.293,2172.51C278.93,2172.58 282.216,2175.41 282.309,2179.2C282.398,2182.98 279.406,2186.12 275.62,2186.22C266.38,2186.73 210.799,2235.29 204.704,2312.04C192.743,2462.5 256.232,2543.34 319.641,2568.82C381.873,2593.84 452.107,2570.76 502.905,2508.57C544.183,2458.04 527.58,2367.04 487.682,2308.26C453.743,2258.26 408.333,2236.4 366.205,2249.72C325.872,2262.51 312.658,2287.22 304.759,2301.98C302.483,2306.24 300.515,2309.91 298.304,2312.62C295.911,2315.55 291.597,2315.99 288.657,2313.6C285.726,2311.2 285.291,2306.88 287.684,2303.95C289.054,2302.28 290.732,2299.14 292.672,2295.51C300.968,2280 316.412,2251.12 362.064,2236.65C410.273,2221.37 461.488,2245.27 499.026,2300.56C541.154,2362.63 560.556,2459.66 513.525,2517.25C473.552,2566.17 422.103,2592.51 370.772,2592.51Z" style="fill:rgb(73,73,73);fill-rule:nonzero;"/>
            <path d="M248.87,2292.58C246.117,2292.58 243.518,2290.91 242.471,2288.19C234.591,2267.65 269.81,2207.98 297.519,2175.93C318.566,2151.58 335.973,2140.74 349.28,2143.75C352.973,2144.58 355.291,2148.24 354.464,2151.94C353.627,2155.63 349.991,2158.03 346.27,2157.12C340.441,2155.78 327.33,2162.42 307.891,2184.9C274.555,2223.46 251.516,2273.48 255.269,2283.27C256.625,2286.8 254.858,2290.77 251.324,2292.13C250.52,2292.44 249.688,2292.58 248.87,2292.58Z" style="fill:rgb(73,73,73);fill-rule:nonzero;"/>
            <path d="M270.044,2290.04C266.964,2290.04 264.169,2287.95 263.393,2284.83C260.032,2271.22 275.789,2242.39 291.849,2221.37C305.722,2203.2 342.783,2160.85 387.169,2159.79C390.871,2160.04 394.091,2162.7 394.185,2166.48C394.273,2170.26 391.277,2173.4 387.496,2173.49C349.046,2174.41 315.416,2213.09 302.744,2229.69C283.197,2255.28 275.513,2276.73 276.705,2281.54C277.612,2285.22 275.368,2288.94 271.694,2289.84C271.142,2289.97 270.586,2290.04 270.044,2290.04Z" style="fill:rgb(73,73,73);fill-rule:nonzero;"/>
            <path d="M308.05,2260.02C306.395,2260.02 304.74,2259.43 303.427,2258.23C300.632,2255.67 300.435,2251.34 302.987,2248.54C330.752,2218.17 359.638,2202.19 396.653,2196.75C400.383,2196.13 403.879,2198.79 404.43,2202.53C404.982,2206.28 402.392,2209.77 398.644,2210.31C364.971,2215.26 338.595,2229.91 313.112,2257.8C311.756,2259.27 309.905,2260.02 308.05,2260.02Z" style="fill:rgb(73,73,73);fill-rule:nonzero;"/>
            <path d="M351.542,2402.09C348.687,2402.09 346.022,2400.29 345.055,2397.44C344.05,2394.5 342.844,2391.62 341.647,2388.75C339.338,2383.22 336.95,2377.5 335.749,2371.12C335.047,2367.4 337.497,2363.81 341.217,2363.11C344.915,2362.47 348.518,2364.85 349.219,2368.57C350.154,2373.55 352.169,2378.37 354.296,2383.47C355.614,2386.63 356.927,2389.79 358.03,2393.03C359.25,2396.61 357.334,2400.51 353.749,2401.72C353.02,2401.98 352.272,2402.09 351.542,2402.09Z" style="fill:rgb(73,73,73);fill-rule:nonzero;"/>
            <path d="M413.802,2388.24C410.572,2388.24 407.693,2385.95 407.076,2382.65C406.309,2378.57 404.561,2374.34 402.71,2369.86C400.621,2364.81 398.462,2359.58 397.377,2353.82C396.676,2350.1 399.125,2346.51 402.846,2345.81C406.566,2345.19 410.152,2347.56 410.848,2351.28C411.671,2355.65 413.475,2360.01 415.382,2364.63C417.415,2369.56 419.519,2374.64 420.547,2380.13C421.248,2383.85 418.799,2387.43 415.078,2388.13C414.648,2388.21 414.223,2388.24 413.802,2388.24Z" style="fill:rgb(73,73,73);fill-rule:nonzero;"/>
            <path d="M356.24,2515.39C344.662,2515.39 333.005,2513.22 321.773,2508.88C302.02,2501.25 303.941,2487.86 305.684,2482.46C314.318,2455.71 377.685,2427.39 409.988,2435.83C413.648,2436.78 415.845,2440.53 414.886,2444.18C413.928,2447.85 410.184,2450.05 406.52,2449.08C379.167,2441.95 324.769,2467.93 318.73,2486.67C318.141,2488.49 316.912,2492.31 326.713,2496.09C346.607,2503.79 368.042,2503.52 387.066,2495.35C390.548,2493.85 394.577,2495.46 396.068,2498.95C397.564,2502.42 395.956,2506.45 392.479,2507.95C380.924,2512.9 368.631,2515.39 356.24,2515.39Z" style="fill:rgb(73,73,73);fill-rule:nonzero;"/>
            <path d="M471.266,2603.09C452.789,2603.09 433.616,2599.49 414.162,2590.85C410.703,2589.32 409.142,2585.27 410.68,2581.81C412.213,2578.34 416.293,2576.8 419.724,2578.32C527.533,2626.19 628.757,2503.02 629.771,2501.77C632.15,2498.83 636.469,2498.38 639.409,2500.75C642.354,2503.12 642.817,2507.43 640.437,2510.38C639.545,2511.49 564.375,2603.09 471.266,2603.09Z" style="fill:rgb(73,73,73);fill-rule:nonzero;"/>
            <path d="M2823.4,2446.9C2836.52,2406.43 2890.88,2437.32 2943.06,2454.24C2981.6,2466.74 2963.08,2489.53 2890.48,2713.44C2877.36,2753.91 2823,2723.02 2770.82,2706.1C2732.28,2693.6 2750.8,2670.8 2823.4,2446.9Z" style="fill:rgb(255,182,0);fill-rule:nonzero;"/>
            <path d="M2823.4,2446.9L2829.07,2448.75C2814.37,2494.09 2801.77,2531.53 2791.64,2561.63C2764.64,2641.84 2752.32,2678.45 2758.88,2691.47C2760.79,2695.29 2764.78,2697.88 2772.66,2700.43C2782.71,2703.69 2792.84,2707.46 2802.64,2711.1C2831.83,2721.97 2859.42,2732.27 2874.27,2725.06C2879.2,2722.68 2882.65,2718.27 2884.81,2711.6C2899.51,2666.25 2912.11,2628.8 2922.25,2598.71C2949.24,2518.5 2961.56,2481.89 2955,2468.87C2953.09,2465.06 2949.1,2462.47 2941.22,2459.92C2931.18,2456.65 2921.05,2452.89 2911.26,2449.24C2882.04,2438.36 2854.44,2428.08 2839.61,2435.27C2834.68,2437.66 2831.23,2442.06 2829.07,2448.75L2823.4,2446.9ZM2862.18,2739.31C2844.24,2739.31 2821.84,2730.98 2798.48,2722.29C2788.8,2718.68 2778.79,2714.96 2768.97,2711.78C2761.16,2709.24 2752.58,2705.48 2748.22,2696.84C2739.43,2679.37 2749.74,2648.74 2780.34,2557.82C2790.46,2527.77 2803.05,2490.35 2817.72,2445.06C2820.9,2435.26 2826.52,2428.37 2834.42,2424.54C2853.86,2415.17 2883.76,2426.28 2915.42,2438.07C2925.09,2441.67 2935.09,2445.39 2944.9,2448.57C2952.72,2451.11 2961.3,2454.87 2965.65,2463.51C2974.45,2480.98 2964.14,2511.6 2933.55,2602.52C2923.43,2632.58 2910.84,2669.99 2896.16,2715.28C2892.98,2725.07 2887.36,2731.98 2879.47,2735.79C2874.38,2738.26 2868.56,2739.31 2862.18,2739.31Z" style="fill:rgb(73,73,73);fill-rule:nonzero;"/>
            <path d="M2859.65,2823.11C2857.78,2823.11 2855.94,2822.23 2854.78,2820.59C2852.87,2817.91 2853.51,2814.19 2856.19,2812.28L2875.43,2798.63L2812.73,2788.71C2810.61,2788.37 2808.82,2786.91 2808.08,2784.89C2807.33,2782.87 2807.72,2780.61 2809.11,2778.96L2851.28,2729.18C2853.42,2726.66 2857.17,2726.36 2859.69,2728.47C2862.2,2730.61 2862.51,2734.36 2860.39,2736.88L2825.06,2778.58L2891.74,2789.14C2894.14,2789.53 2896.06,2791.31 2896.61,2793.68C2897.17,2796.03 2896.23,2798.49 2894.26,2799.9L2863.09,2822C2862.04,2822.75 2860.84,2823.11 2859.65,2823.11Z" style="fill:rgb(73,73,73);fill-rule:nonzero;"/>
            <path d="M2834.94,2650.87C2815.65,2650.87 2794.72,2646.96 2773.91,2635.97C2698.83,2596.35 2656.66,2481.83 2648.5,2295.55C2641.1,2299.67 2628.05,2304.93 2618.21,2297.77C2606.17,2288.99 2605.34,2265.61 2615.68,2226.32C2616.52,2223.13 2619.76,2221.22 2622.96,2222.07C2626.15,2222.91 2628.05,2226.17 2627.22,2229.35C2614.46,2277.79 2622.92,2286.87 2625.81,2288.51C2632.05,2291.98 2645.24,2284.26 2648.92,2280.97C2649.24,2280.46 2649.63,2279.99 2650.1,2279.58C2651.46,2278.4 2653.28,2277.88 2655.05,2278.21C2657.48,2278.64 2659.43,2280.56 2659.91,2282.96C2660.05,2283.65 2660.08,2284.31 2660.01,2284.94C2666.81,2469.94 2708.08,2587.65 2779.38,2625.38C2844.29,2659.72 2913.65,2616.98 2914.34,2616.53C2917.12,2614.79 2920.81,2615.63 2922.56,2618.4C2924.31,2621.18 2923.48,2624.86 2920.71,2626.61C2918.54,2627.98 2881.55,2650.87 2834.94,2650.87Z" style="fill:rgb(73,73,73);fill-rule:nonzero;"/>
            <path d="M2963.71,2348.95C2955.26,2338.6 2947.19,2302.42 2894.67,2285.78C2780.79,2249.7 2682.18,2458.6 2754.83,2547.55C2874.37,2693.85 3076.15,2605.13 3056.03,2352.07C3050.02,2276.39 2995.13,2224.18 2980.73,2223.84" style="fill:white;fill-rule:nonzero;"/>
            <path d="M2888.24,2624.11C2838.62,2624.11 2788.88,2598.64 2750.21,2551.32C2704.78,2495.7 2723.58,2401.88 2764.33,2341.85C2800.57,2288.46 2849.93,2265.36 2896.47,2280.09C2940.51,2294.05 2955.42,2321.92 2963.42,2336.88C2965.32,2340.44 2966.95,2343.5 2968.33,2345.18C2970.41,2347.73 2970.03,2351.49 2967.47,2353.57C2964.94,2355.65 2961.17,2355.28 2959.09,2352.72C2956.99,2350.15 2955.18,2346.77 2952.9,2342.51C2945.19,2328.09 2932.29,2303.96 2892.87,2291.46C2851.66,2278.39 2807.31,2299.76 2774.19,2348.55C2735.33,2405.81 2719.18,2494.49 2759.45,2543.78C2808.94,2604.36 2877.39,2626.88 2938.11,2602.45C2999.88,2577.63 3061.72,2498.94 3050.09,2352.54C3044.05,2276.47 2989.64,2230.01 2980.59,2229.8C2977.3,2229.71 2974.69,2226.98 2974.77,2223.69C2974.85,2220.39 2977.39,2217.46 2980.87,2217.87C2998.47,2218.3 3055.72,2272.89 3061.98,2351.6C3074.13,2504.43 3008.25,2587.11 2942.55,2613.52C2924.85,2620.63 2906.54,2624.11 2888.24,2624.11Z" style="fill:rgb(73,73,73);fill-rule:nonzero;"/>
            <path d="M3006.53,2333.03C3005.82,2333.03 3005.1,2332.9 3004.4,2332.63C3001.32,2331.45 2999.78,2328 3000.97,2324.94C3005.07,2314.22 2980.04,2263.75 2949.77,2228.74C2930.72,2206.7 2917.7,2200.28 2911.85,2201.57C2908.72,2202.31 2905.45,2200.28 2904.73,2197.06C2904,2193.85 2906.02,2190.66 2909.23,2189.94C2921.94,2187.01 2938.55,2197.54 2958.79,2220.95C2985.57,2251.93 3019.66,2309.5 3012.09,2329.2C3011.19,2331.57 3008.93,2333.03 3006.53,2333.03Z" style="fill:rgb(73,73,73);fill-rule:nonzero;"/>
            <path d="M2985.98,2330.56C2985.52,2330.56 2985.04,2330.51 2984.55,2330.39C2981.36,2329.6 2979.4,2326.37 2980.2,2323.17C2981.54,2317.71 2973.26,2296.41 2954.75,2272.2C2942.4,2256.04 2909.6,2218.34 2872.01,2217.45C2868.72,2217.37 2866.11,2214.64 2866.19,2211.35C2866.27,2208.05 2868.77,2205.03 2872.29,2205.52C2915.04,2206.54 2950.83,2247.43 2964.23,2264.96C2979.74,2285.26 2994.98,2313.03 2991.77,2326.03C2991.11,2328.74 2988.67,2330.56 2985.98,2330.56Z" style="fill:rgb(73,73,73);fill-rule:nonzero;"/>
            <path d="M2949.1,2301.43C2947.48,2301.43 2945.87,2300.78 2944.69,2299.49C2919.84,2272.3 2894.12,2258.02 2861.27,2253.19C2858.02,2252.71 2855.76,2249.68 2856.24,2246.42C2856.73,2243.16 2859.71,2240.9 2863.01,2241.39C2898.76,2246.64 2926.67,2262.09 2953.5,2291.45C2955.71,2293.88 2955.55,2297.65 2953.12,2299.87C2951.98,2300.92 2950.54,2301.43 2949.1,2301.43Z" style="fill:rgb(73,73,73);fill-rule:nonzero;"/>
            <path d="M2880.32,2545.91C2864.52,2545.91 2851.59,2540.92 2841.99,2535.24C2819.24,2521.78 2804.13,2497.4 2804.13,2487.18C2804.13,2483.91 2806.76,2481.32 2810.02,2481.29L2810.1,2481.29C2813.33,2481.29 2815.98,2483.93 2816.06,2487.17C2816.15,2491.06 2826.91,2512.82 2848.8,2525.41C2870.15,2537.68 2893.75,2536.87 2919.04,2522.97C2935.34,2514.1 2951.42,2500.79 2947.76,2490C2946.7,2486.88 2948.38,2483.49 2951.49,2482.44C2954.63,2481.4 2958,2483.04 2959.05,2486.17C2966.18,2507.17 2940.63,2524.8 2924.76,2533.43C2908.19,2542.55 2893.29,2545.91 2880.32,2545.91Z" style="fill:rgb(73,73,73);fill-rule:nonzero;"/>
            <path d="M2952.29,2540.75C2951.92,2540.75 2951.54,2540.74 2951.15,2540.71C2947.86,2540.5 2945.38,2537.66 2945.6,2534.38C2945.81,2531.08 2948.9,2528.72 2951.94,2528.82C2953.05,2528.79 2955.71,2529.05 2957.78,2522.9C2961.29,2512.43 2958.11,2498.23 2955.48,2495.39C2952.59,2496.15 2949.54,2494.67 2948.41,2491.85C2947.2,2488.8 2948.65,2485.34 2951.69,2484.12C2956,2482.36 2960.59,2483.5 2963.99,2487.07C2971.77,2495.3 2973.72,2517.32 2967.79,2529.93C2964.53,2536.86 2958.93,2540.75 2952.29,2540.75Z" style="fill:rgb(73,73,73);fill-rule:nonzero;"/>
            <path d="M2816.8,2403.45C2815.99,2403.45 2815.15,2403.28 2814.36,2402.93C2811.36,2401.58 2810.01,2398.06 2811.36,2395.05L2823,2369.05C2824.33,2366.05 2827.86,2364.69 2830.88,2366.05C2833.88,2367.4 2835.22,2370.92 2833.88,2373.93L2822.24,2399.93C2821.25,2402.13 2819.07,2403.45 2816.8,2403.45Z" style="fill:rgb(73,73,73);fill-rule:nonzero;"/>
            <path d="M2886.36,2434.6C2885.55,2434.6 2884.71,2434.43 2883.92,2434.08C2880.92,2432.73 2879.57,2429.21 2880.92,2426.2L2892.56,2400.2C2893.9,2397.2 2897.41,2395.83 2900.44,2397.2C2903.44,2398.54 2904.78,2402.07 2903.44,2405.08L2891.8,2431.08C2890.81,2433.28 2888.63,2434.6 2886.36,2434.6Z" style="fill:rgb(73,73,73);fill-rule:nonzero;"/>
            <path d="M1822.33,756.052C1822.33,811.446 1777.42,856.352 1722.03,856.352C1666.64,856.352 1621.73,811.446 1621.73,756.052C1621.73,700.658 1666.64,655.752 1722.03,655.752C1777.42,655.752 1822.33,700.658 1822.33,756.052Z" style="fill:rgb(255,182,0);fill-rule:nonzero;"/>
            <path d="M1722.03,660.333C1669.25,660.333 1626.31,703.27 1626.31,756.05C1626.31,808.831 1669.25,851.767 1722.03,851.767C1774.82,851.767 1817.76,808.831 1817.76,756.05C1817.76,703.27 1774.82,660.333 1722.03,660.333ZM1722.03,860.929C1664.2,860.929 1617.16,813.879 1617.16,756.05C1617.16,698.222 1664.2,651.172 1722.03,651.172C1779.86,651.172 1826.91,698.222 1826.91,756.05C1826.91,813.879 1779.86,860.929 1722.03,860.929Z" style="fill:rgb(73,73,73);fill-rule:nonzero;"/>
            <path d="M1771.5,756.052C1771.5,783.374 1749.35,805.523 1722.03,805.523C1694.71,805.523 1672.56,783.374 1672.56,756.052C1672.56,728.73 1694.71,706.581 1722.03,706.581C1749.35,706.581 1771.5,728.73 1771.5,756.052Z" style="fill:rgb(73,73,73);fill-rule:nonzero;"/>
            <path d="M2208.78,1357.18C2206.7,1357.18 2204.68,1356.1 2203.58,1354.15L2072.17,1122.16C2070.54,1119.3 2071.55,1115.66 2074.41,1114.03C2077.28,1112.42 2080.92,1113.41 2082.54,1116.29L2213.96,1348.28C2215.58,1351.14 2214.58,1354.78 2211.71,1356.41C2210.78,1356.93 2209.77,1357.18 2208.78,1357.18Z" style="fill:rgb(73,73,73);fill-rule:nonzero;"/>
            <path d="M2230.24,1307.56C2228.07,1307.56 2225.98,1306.37 2224.93,1304.32L2169.94,1197.04C2168.44,1194.1 2169.6,1190.51 2172.53,1189.01C2175.45,1187.51 2179.05,1188.66 2180.55,1191.6L2235.54,1298.88C2237.04,1301.81 2235.88,1305.4 2232.95,1306.91C2232.08,1307.35 2231.15,1307.56 2230.24,1307.56Z" style="fill:rgb(73,73,73);fill-rule:nonzero;"/>
            <path d="M1846.7,705.457C1843.9,705.457 1841.41,703.485 1840.85,700.633C1831.08,650.555 1792.28,642.646 1790.63,642.328C1787.41,641.721 1785.27,638.607 1785.87,635.382C1786.47,632.157 1789.54,630.054 1792.79,630.596C1794.76,630.961 1841.18,640.038 1852.56,698.352C1853.19,701.587 1851.08,704.719 1847.84,705.345C1847.46,705.42 1847.08,705.457 1846.7,705.457Z" style="fill:rgb(73,73,73);fill-rule:nonzero;"/>
            <path d="M1900.31,721.546C1897.25,721.546 1894.66,719.208 1894.38,716.114C1889.33,659.66 1851.92,635.027 1851.54,634.784C1848.77,633.008 1847.96,629.325 1849.73,626.548C1851.5,623.781 1855.18,622.968 1857.94,624.716C1859.68,625.828 1900.66,652.499 1906.26,715.048C1906.55,718.33 1904.13,721.228 1900.85,721.518C1900.67,721.536 1900.49,721.546 1900.31,721.546Z" style="fill:rgb(73,73,73);fill-rule:nonzero;"/>
            <path d="M1719.95,895.62C1698.34,895.62 1682.66,887.665 1681.69,887.16C1678.78,885.645 1677.64,882.056 1679.15,879.139C1680.66,876.204 1684.25,875.063 1687.18,876.568C1687.48,876.737 1718.66,892.376 1751.59,876.493C1754.55,875.073 1758.12,876.316 1759.54,879.279C1760.97,882.252 1759.73,885.814 1756.76,887.244C1743.71,893.526 1731.05,895.62 1719.95,895.62Z" style="fill:rgb(73,73,73);fill-rule:nonzero;"/>
        </g>
    </g>
</svg>
